<?xml version="1.0" encoding="UTF-8"?>
<!DOCTYPE svg PUBLIC "-//W3C//DTD SVG 1.1//EN" "http://www.w3.org/Graphics/SVG/1.1/DTD/svg11.dtd">
<!-- Creator: CorelDRAW X8 -->
<svg xmlns="http://www.w3.org/2000/svg" xml:space="preserve" width="210mm" height="297mm" version="1.1" style="shape-rendering:geometricPrecision; text-rendering:geometricPrecision; image-rendering:optimizeQuality; fill-rule:evenodd; clip-rule:evenodd"
viewBox="0 0 21000 29700"
 xmlns:xlink="http://www.w3.org/1999/xlink">
 <defs>
  <style type="text/css">
   <![CDATA[
    .fil0 {fill:#FEFEFE}
   ]]>
  </style>
 </defs>
 <g id="Слой_x0020_1">
  <metadata id="CorelCorpID_0Corel-Layer"/>
  <g id="_2378716946160">
   <rect class="fil0" x="-3581" y="6371" width="4524" height="638"/>
   <path class="fil0" d="M-4219 7503l11580 0c-2404,620 -8159,638 -10942,638l0 14551 14110 0c4018,0 7275,-3257 7275,-7276 0,-2955 -1761,-5498 -4292,-6637 3210,675 4930,3826 4930,6637 0,4371 -3543,7913 -7913,7913l-14748 0 0 -15826z"/>
   <path class="fil0" d="M25219 7503l-14748 0c-4370,0 -7913,3543 -7913,7913 0,2812 1653,5913 4930,6638 -2531,-1139 -4292,-3682 -4292,-6638 0,-4018 3257,-7275 7275,-7275l14110 0 0 14551c-2709,0 -8578,85 -10469,637l11107 0 0 -15826z"/>
  </g>
 </g>
</svg>
