<?xml version="1.0" encoding="UTF-8"?>
<!DOCTYPE svg PUBLIC "-//W3C//DTD SVG 1.1//EN" "http://www.w3.org/Graphics/SVG/1.1/DTD/svg11.dtd">
<!-- Creator: CorelDRAW X8 -->
<svg xmlns="http://www.w3.org/2000/svg" xml:space="preserve" width="83.304mm" height="47.9916mm" version="1.1" style="shape-rendering:geometricPrecision; text-rendering:geometricPrecision; image-rendering:optimizeQuality; fill-rule:evenodd; clip-rule:evenodd"
viewBox="0 0 8330 4799"
 xmlns:xlink="http://www.w3.org/1999/xlink">
 <defs>
  <style type="text/css">
   <![CDATA[
    .fil0 {fill:white}
   ]]>
  </style>
 </defs>
 <g id="Слой_x0020_1">
  <metadata id="CorelCorpID_0Corel-Layer"/>
  <g id="_2273861401024">
   <rect class="fil0" x="180" width="1280" height="180"/>
   <path class="fil0" d="M0 321l3277 0c-680,175 -2309,180 -3097,180l0 4118 3993 0c1138,0 2059,-922 2059,-2059 0,-836 -498,-1556 -1214,-1879 908,191 1395,1083 1395,1879 0,1237 -1003,2239 -2240,2239l-4173 0 0 -4478z"/>
   <path class="fil0" d="M8330 321l-4173 0c-1237,0 -2239,1002 -2239,2239 0,796 467,1673 1395,1878 -716,-322 -1215,-1042 -1215,-1878 0,-1137 922,-2059 2059,-2059l3993 0 0 4118c-767,0 -2427,24 -2963,180l3143 0 0 -4478z"/>
   <path class="fil0" d="M4152 1081c798,0 1444,647 1444,1444 0,798 -646,1444 -1444,1444 -797,0 -1444,-646 -1444,-1444 0,-797 647,-1444 1444,-1444zm0 181c698,0 1264,565 1264,1263 0,698 -566,1264 -1264,1264 -698,0 -1264,-566 -1264,-1264 0,-698 566,-1263 1264,-1263z"/>
  </g>
 </g>
</svg>
